<svg width="180" height="39" viewBox="0 0 180 39" fill="none" xmlns="http://www.w3.org/2000/svg">
<g clip-path="url(#clip0)">
<path d="M52.5603 10.1911H50.2899V6.30347H61.434C65.9331 6.30347 69.1517 9.10809 69.1517 13.801C69.1517 18.2856 66.0369 20.1426 64.9987 20.3509V20.4203C65.5286 20.7017 65.9562 21.1439 66.2203 21.6838L68.6672 26.4808C69.0133 27.2167 69.6085 27.2861 70.3769 27.2861H70.8302V31.1772H68.4561C66.6045 31.1772 65.8016 30.896 64.9952 29.3202L61.78 23.0479C61.2575 22.0691 60.7695 21.8921 59.4405 21.8921H57.1356V31.1772H52.5603V10.1911ZM60.7695 17.9697C63.109 17.9697 64.4345 16.5327 64.4345 14.0474C64.4345 11.5621 63.109 10.1911 60.8387 10.1911H57.1356V17.9697H60.7695Z" fill="#101F26"/>
<path d="M81.199 12.8916C86.3003 12.8916 89.0933 16.6404 89.0933 21.368C89.0888 21.9422 89.0425 22.5152 88.9548 23.0827H76.6583C76.9733 26.2066 79.3474 27.8137 82.0365 27.8137C84.3415 27.8137 86.1896 26.5156 87.1379 25.8526L88.8683 29.039C86.8274 30.6459 84.3192 31.5404 81.7251 31.5868C75.8208 31.5868 72.1177 27.3139 72.1177 22.2323C72.1177 16.7445 75.8554 12.8916 81.199 12.8916ZM84.6599 20.0351C84.6253 17.6539 83.0886 16.2516 81.0986 16.2516C78.8283 16.2516 77.2225 17.758 76.8037 20.0351H84.6599Z" fill="#101F26"/>
<path d="M93.1771 25.5019C93.1771 25.5019 95.4474 28.1157 98.5207 28.1157C99.8497 28.1157 100.898 27.5533 100.898 26.3628C100.898 23.8393 91.5366 23.8775 91.5366 18.0947C91.5366 14.5229 94.7483 12.8881 98.4168 12.8881C100.86 12.8881 104.667 13.6934 104.667 16.5986V18.4557H100.791V17.5844C100.791 16.7444 99.5001 16.3244 98.5207 16.3244C96.984 16.3244 95.9008 16.8833 95.9008 17.935C95.9008 20.7362 105.332 20.1773 105.332 26.1302C105.332 29.5041 102.362 31.5867 98.4861 31.5867C93.5959 31.5867 91.0833 28.3968 91.0833 28.3968L93.1771 25.5019Z" fill="#101F26"/>
<path d="M109.242 16.8486H106.941V13.3115H109.384V8.45203H113.683V13.3115H117.732V16.8486H113.683V24.0649C113.683 27.0084 115.988 27.4284 117.244 27.4284C117.513 27.4316 117.782 27.4084 118.047 27.359V31.2396C117.589 31.3126 117.126 31.3474 116.663 31.3438C114.181 31.3438 109.256 30.6079 109.256 24.6168L109.242 16.8486Z" fill="#101F26"/>
<path d="M130.267 19.9657H130.821V19.7227C130.821 17.2686 129.81 16.3245 127.54 16.3245C126.737 16.3245 125.166 16.5328 125.166 17.5151V18.4592H121.013V16.5675C121.013 13.2769 125.727 12.8916 127.44 12.8916C133.517 12.8916 135.261 15.9392 135.261 20.0004V26.6579C135.25 26.7615 135.263 26.8663 135.297 26.9645C135.332 27.0626 135.388 27.1517 135.462 27.2251C135.536 27.2984 135.625 27.3542 135.724 27.3882C135.822 27.4222 135.926 27.4336 136.03 27.4215H137.414V31.1703H133.41C131.769 31.1703 131.174 30.2574 131.174 29.2056V28.442H131.105C131.139 28.442 129.603 31.5972 125.588 31.5972C122.408 31.5972 119.684 29.5979 119.684 26.2726C119.684 20.2815 127.36 19.9657 130.267 19.9657ZM126.775 28.199C129.219 28.199 130.863 25.6756 130.863 23.5061V23.0133H130.056C127.751 23.0133 124.086 23.3604 124.086 25.8179C124.086 27.0085 124.993 28.199 126.775 28.199Z" fill="#101F26"/>
<path d="M140.709 17.8656C140.721 17.7615 140.709 17.6559 140.675 17.5568C140.641 17.4578 140.585 17.3678 140.511 17.2936C140.437 17.2195 140.347 17.1631 140.248 17.1287C140.15 17.0943 140.044 17.0828 139.94 17.0951H138.556V13.3116H142.54C144.18 13.3116 144.775 14.0475 144.775 15.0263V15.7205H144.844C144.844 15.7205 146.346 12.8846 150.503 12.8846C155.321 12.8846 158.397 16.7028 158.397 22.2357C158.397 27.9109 154.936 31.6076 150.257 31.6076C146.731 31.6076 145.159 29.2612 145.159 29.2612H145.09C145.09 29.2612 145.159 29.8894 145.159 30.8023V38.1818H140.709V17.8656ZM149.44 27.8484C151.884 27.8484 153.912 25.8526 153.912 22.2947C153.912 18.8965 152.095 16.6924 149.51 16.6924C147.17 16.6924 145.011 18.3724 145.011 22.3294C145.011 25.1167 146.506 27.8484 149.44 27.8484Z" fill="#101F26"/>
<path d="M162.315 17.8656C162.327 17.7615 162.316 17.6559 162.281 17.5568C162.247 17.4578 162.191 17.3678 162.117 17.2936C162.043 17.2195 161.953 17.1631 161.855 17.1287C161.756 17.0943 161.65 17.0828 161.547 17.0951H160.162V13.3116H164.142C165.786 13.3116 166.378 14.0475 166.378 15.0263V15.7205H166.447C166.447 15.7205 167.949 12.8846 172.106 12.8846C176.927 12.8846 180 16.7028 180 22.2357C180 27.9109 176.539 31.6076 171.86 31.6076C168.333 31.6076 166.762 29.2612 166.762 29.2612H166.693C166.693 29.2612 166.762 29.8894 166.762 30.8023V38.1818H162.315V17.8656ZM171.047 27.8484C173.494 27.8484 175.518 25.8526 175.518 22.2947C175.518 18.8965 173.701 16.6924 171.119 16.6924C168.776 16.6924 166.62 18.3724 166.62 22.3294C166.624 25.1167 168.126 27.8484 171.057 27.8484H171.047Z" fill="#101F26"/>
<path d="M37.2667 5.15808e-06H4.65834C3.42287 5.15808e-06 2.238 0.492239 1.36439 1.36842C0.490788 2.2446 0 3.43296 0 4.67207L0 21.6074C0 22.8466 0.490788 24.0349 1.36439 24.9111C2.238 25.7873 3.42287 26.2795 4.65834 26.2795H10.4242C10.707 26.28 10.9871 26.2244 11.2485 26.1161C11.5099 26.0078 11.7473 25.8487 11.9473 25.6482C12.1473 25.4476 12.3059 25.2094 12.4139 24.9473C12.5219 24.6851 12.5773 24.4042 12.5768 24.1205V19.9865C11.24 19.685 10.045 18.9368 9.18783 17.8646C8.33071 16.7924 7.86237 15.4599 7.85964 14.0856V9.37191C7.85978 9.1887 7.89807 9.00753 7.97207 8.84002C8.04606 8.67252 8.15413 8.52236 8.28934 8.39916C8.42455 8.27597 8.58393 8.18246 8.75726 8.12463C8.93059 8.06679 9.11406 8.04591 9.29591 8.06331C9.62914 8.10771 9.93428 8.27401 10.1527 8.53026C10.3712 8.78652 10.4876 9.11468 10.4795 9.45174V14.0856C10.4797 14.2016 10.4866 14.3175 10.5003 14.4327C10.6283 15.724 12.5768 15.5678 12.5768 14.2765V9.37191C12.577 9.1887 12.6152 9.00753 12.6892 8.84002C12.7632 8.67252 12.8713 8.52236 13.0065 8.39916C13.1417 8.27597 13.3011 8.18246 13.4744 8.12463C13.6478 8.06679 13.8312 8.04591 14.0131 8.06331C14.3463 8.10771 14.6515 8.27401 14.8699 8.53026C15.0884 8.78652 15.2047 9.11468 15.1967 9.45174V14.3112C15.1967 15.6025 17.1417 15.7587 17.2732 14.4674C17.2732 14.3494 17.2732 14.2349 17.2732 14.1203V9.43091C17.2645 9.09313 17.3811 8.76412 17.6004 8.50761C17.8197 8.25111 18.1261 8.08536 18.4603 8.04249C18.6451 8.02284 18.8321 8.04273 19.0087 8.10082C19.1853 8.15892 19.3477 8.25391 19.485 8.37953C19.6224 8.50515 19.7316 8.65855 19.8055 8.8296C19.8794 9.00066 19.9164 9.18549 19.9139 9.37191V14.0856C19.9105 15.4597 19.4419 16.7919 18.5849 17.864C17.7279 18.9361 16.5333 19.6844 15.1967 19.9865V24.1205C15.1967 24.6931 15.4235 25.2423 15.8272 25.6472C16.2309 26.052 16.7784 26.2795 17.3494 26.2795H25.0117C25.5827 26.2795 26.1302 26.052 26.5339 25.6472C26.9376 25.2423 27.1644 24.6931 27.1644 24.1205V22.3225C24.7072 21.545 22.8833 18.6431 22.8833 15.179C22.8833 11.1144 25.382 7.82728 28.4726 7.82728C31.5632 7.82728 34.0654 11.1074 34.0654 15.179C34.0654 18.6501 32.2346 21.545 29.7843 22.3225V24.1205C29.785 24.5314 29.9026 24.9335 30.1233 25.2797C30.344 25.6258 30.6586 25.9016 31.0302 26.0747L41.9319 31.5035V4.67207C41.9319 4.05794 41.8112 3.44984 41.5767 2.88254C41.3421 2.31525 40.9984 1.7999 40.5651 1.36596C40.1318 0.932033 39.6175 0.588035 39.0515 0.353651C38.4855 0.119266 37.879 -0.000907367 37.2667 5.15808e-06Z" fill="#19A4F2"/>
</g>
<defs>
<clipPath id="clip0">
</clipPath>
</defs>
</svg>
